v  14.5293 332.1790 -33.3431
v  38.0387 301.9895 -44.2261
v  27.5313 266.9174 -61.3661
v  20.7488 265.7470 -62.7029
v  -14.7018 298.2890 -52.1738
v  -14.2728 304.9836 -49.0896
v  -72.4275 274.7535 -3.5093
v  -72.4473 278.7715 -5.5723
v  -71.5665 257.9942 -6.0105
v  -26.7537 349.9880 4.8959
v  -14.4138 360.6147 -1.5067
v  -38.5473 328.2434 -22.9938
v  -47.6246 320.9047 -16.8804
v  -52.6869 316.9176 -13.1611
v  -44.9797 328.5068 -2.6267
v  -55.0962 312.4065 -12.8102
v  -0.6034 366.2329 -0.2587
v  0.6112 363.4983 -2.9127
v  -21.3677 301.2446 -50.3190
v  8.9214 362.6105 10.6548
v  38.9573 330.2160 7.7353
v  42.2864 326.1352 6.5390
v  59.4404 292.4640 -22.1289
v  -67.2972 248.8768 14.8082
v  -65.1800 222.3036 15.2311
v  -34.7376 166.9916 43.4798
v  -24.3905 245.1311 59.6576
v  47.5586 286.7321 42.3509
v  45.2294 278.6277 48.2198
v  62.8717 233.8711 25.3486
v  65.7240 245.2641 17.8631
v  65.7455 248.0249 17.2628
v  60.7505 286.8663 -19.4590
v  41.8980 326.0217 8.5122
v  4.8820 335.3575 43.8944
v  5.5329 332.6797 45.8844
v  -69.9517 232.2742 -8.1361
v  -64.7298 204.9939 10.0860
v  -19.5283 19.9488 -8.6539
v  -0.5769 19.6074 15.5983
v  -2.2897 21.6920 20.1646
v  -7.5399 24.6050 22.7882
v  -18.8074 28.7333 21.3885
v  -29.4071 28.0092 4.8119
v  -28.4746 24.0304 -7.1359
v  18.4277 19.7185 -2.4035
v  34.8419 29.5605 -4.2177
v  35.5968 48.5598 22.1384
v  16.2838 41.3567 30.3792
v  -1.7517 24.6941 23.9089
v  -71.4826 281.3192 -8.7553
v  -48.8636 238.9570 -48.2513
v  -56.1242 234.5518 -42.5035
v  -59.9787 234.4934 -38.4673
v  60.3445 287.8594 -21.8716
v  -1.1316 281.8407 64.6120
v  -10.8149 261.2843 65.1843
v  -3.4801 259.9828 66.3474
v  -60.0267 205.0407 -35.1763
v  -60.4336 185.8955 -31.9036
v  64.1522 220.8210 22.3828
v  65.1212 225.2611 19.8273
v  -6.3499 20.0268 -21.3414
v  2.3764 19.9613 -18.7300
v  6.1447 301.7095 61.9724
v  34.7575 274.0359 57.6442
v  -31.1318 38.6711 -29.3381
v  -25.6904 37.7501 -32.9865
v  49.5497 103.1676 -31.6686
v  50.6002 171.9108 -43.8914
v  51.1902 195.3791 -46.8269
v  36.7534 35.8222 -13.8132
v  38.3429 67.6170 26.7069
v  49.1108 100.5056 -31.6990
v  20.9199 219.4046 63.6276
v  26.1852 94.7440 41.9728
v  47.0084 115.4680 -37.3085
v  -16.1244 91.4293 -48.0340
v  -18.5128 177.1915 -59.7596

vn 0.2945 0.6253 -0.7227
vn 0.5344 0.4100 -0.7391
vn 0.4091 0.1399 -0.9017
vn 0.0387 0.1093 -0.9933
vn -0.0865 0.2271 -0.9700
vn -0.0699 0.4870 -0.8706
vn -0.9310 0.1332 0.3399
vn -0.9612 0.1965 0.1937
vn -0.9959 -0.0496 -0.0752
vn -0.7126 0.6292 0.3103
vn -0.4764 0.8685 -0.1367
vn -0.5710 0.5489 -0.6105
vn -0.7452 0.4543 -0.4881
vn -0.8532 0.4435 -0.2744
vn -0.8192 0.5169 0.2485
vn -0.8724 0.3723 -0.3166
vn 0.0146 0.9881 -0.1529
vn 0.8897 0.4433 -0.1089
vn -0.3704 0.3226 -0.8711
vn 0.3536 0.8871 0.2965
vn 0.7770 0.6226 0.0930
vn 0.8617 0.5040 -0.0584
vn 0.9025 0.3204 -0.2877
vn -0.8666 0.0715 0.4939
vn -0.8907 -0.0705 0.4491
vn -0.5531 -0.1543 0.8187
vn -0.5109 0.0279 0.8592
vn 0.7873 0.3175 0.5285
vn 0.7080 0.1541 0.6892
vn 0.8298 -0.0214 0.5576
vn 0.9870 0.0194 0.1595
vn 0.9855 0.0728 0.1530
vn 0.9912 0.1325 0.0052
vn 0.8253 0.4426 0.3507
vn -0.0201 0.5929 0.8050
vn 0.0067 0.5185 0.8550
vn -0.9948 -0.0684 -0.0750
vn -0.9485 -0.1600 0.2734
vn -0.3448 -0.9327 -0.1058
vn 0.0870 -0.9269 0.3651
vn 0.0441 -0.8528 0.5203
vn -0.3023 -0.6070 0.7350
vn -0.5207 -0.4916 0.6980
vn -0.8034 -0.5163 0.2966
vn -0.7365 -0.6731 -0.0679
vn 0.4154 -0.9085 0.0459
vn 0.7657 -0.6422 0.0350
vn 0.7788 -0.3576 0.5154
vn 0.2379 -0.4234 0.8742
vn 0.1146 -0.5441 0.8311
vn -0.9092 0.2787 -0.3092
vn -0.5121 0.0967 -0.8535
vn -0.6703 0.0532 -0.7402
vn -0.8343 0.0454 -0.5495
vn 0.9178 0.0927 -0.3860
vn -0.2711 0.1943 0.9427
vn -0.4230 0.1082 0.8996
vn -0.0170 -0.0168 0.9997
vn -0.7998 -0.0744 -0.5957
vn -0.8742 -0.1458 -0.4632
vn 0.8962 -0.1062 0.4306
vn 0.9947 -0.0354 0.0963
vn -0.0000 -0.7904 -0.6125
vn 0.2157 -0.7938 -0.5687
vn -0.0882 0.3408 0.9360
vn 0.4888 0.1022 0.8664
vn -0.7964 -0.3766 -0.4731
vn -0.2478 -0.4432 -0.8615
vn 0.9507 -0.1270 -0.2829
vn 0.7163 -0.0928 -0.6916
vn 0.7167 -0.0732 -0.6935
vn 0.7651 -0.4033 -0.5019
vn 0.8199 -0.1992 0.5368
vn 0.8061 -0.2522 -0.5353
vn 0.2816 -0.1110 0.9531
vn 0.2847 -0.1478 0.9472
vn 0.5152 -0.1532 -0.8433
vn -0.1488 -0.1825 -0.9719
vn -0.1945 -0.0972 -0.9761

vt 0.9301 0.4254 0.0000
vt 0.8853 0.3527 0.0000
vt 0.9143 0.2681 0.0000
vt 0.9291 0.2653 0.0000
vt 0.9990 0.3438 0.0000
vt 0.9968 0.3599 0.0000
vt 0.1167 0.5887 0.0000
vt 0.1126 0.5979 0.0000
vt 0.1113 0.5502 0.0000
vt 0.9861 0.5473 0.0000
vt 0.9659 0.5787 0.0000
vt 0.9398 0.4832 0.0000
vt 0.9573 0.4616 0.0000
vt 0.9677 0.4498 0.0000
vt 0.9831 0.4840 0.0000
vt 0.5208 0.9927 0.0000
vt 0.5369 0.9723 0.0000
vt 0.5332 0.9832 0.0000
vt 0.7210 0.8548 0.0000
vt 0.6846 0.9468 0.0000
vt 0.6581 0.9628 0.0000
vt 0.6544 0.9550 0.0000
vt 0.6116 0.8660 0.0000
vt 0.6601 0.7888 0.0000
vt 0.6734 0.7784 0.0000
vt 0.8460 0.5640 0.0000
vt 0.8055 0.6540 0.0000
vt 0.7733 0.6515 0.0000
vt 0.7492 0.5583 0.0000
vt 0.7481 0.5466 0.0000
vt 0.7823 0.4498 0.0000
vt 0.8425 0.4772 0.0000
vt 0.6116 0.9798 0.0000
vt 0.6137 0.9637 0.0000
vt 0.6269 0.9708 0.0000
vt 0.0010 0.7500 0.0000
vt 0.0057 0.6852 0.0000
vt 0.0818 0.5502 0.0000
vt 0.1104 0.7409 0.0000
vt 0.7610 0.9708 0.0000
vt 0.7481 0.9518 0.0000
vt 0.8016 0.8469 0.0000
vt 0.8180 0.8736 0.0000
vt 0.8193 0.8801 0.0000
vt 0.7481 0.3563 0.0000
vt 0.8065 0.2653 0.0000
vt 0.8795 0.3566 0.0000
vt 0.8844 0.3698 0.0000
vt 0.8191 0.4489 0.0000
vt 0.8149 0.4486 0.0000
vt 0.8894 0.4267 0.0000
vt 0.8855 0.4378 0.0000
vt 0.8853 0.4264 0.0000
vt 0.9350 0.2022 0.0000
vt 0.8777 0.1299 0.0000
vt 0.8754 0.1228 0.0000
vt 0.9350 0.0010 0.0000
vt 0.9808 0.1052 0.0000
vt 0.9782 0.1163 0.0000
vt 0.0827 0.9129 0.0000
vt 0.0773 0.8740 0.0000
vt 0.0724 0.8143 0.0000
vt 0.1071 0.7510 0.0000
vt 0.1176 0.7912 0.0000
vt 0.1176 0.8528 0.0000
vt 0.8719 0.8077 0.0000
vt 0.8227 0.7649 0.0000
vt 0.8244 0.7547 0.0000
vt 0.8343 0.7472 0.0000
vt 0.8583 0.7455 0.0000
vt 0.8870 0.7757 0.0000
vt 0.8899 0.8009 0.0000
vt 0.8891 0.6553 0.0000
vt 0.9157 0.6857 0.0000
vt 0.8798 0.7446 0.0000
vt 0.8400 0.7223 0.0000
vt 0.8227 0.6706 0.0000
vt 0.8271 0.6614 0.0000
vt 0.8360 0.6549 0.0000
vt 0.5050 0.5556 0.0000
vt 0.4851 0.5262 0.0000
vt 0.4869 0.5147 0.0000
vt 0.5029 0.4358 0.0000
vt 0.5103 0.4294 0.0000
vt 0.7137 0.7401 0.0000
vt 0.6971 0.7601 0.0000
vt 0.6753 0.7774 0.0000
vt 0.6116 0.7138 0.0000
vt 0.6541 0.5666 0.0000
vt 0.6727 0.5563 0.0000
vt 0.6840 0.5562 0.0000
vt 0.7430 0.6667 0.0000
vt 0.6103 0.7196 0.0000
vt 0.6105 0.7305 0.0000
vt 0.6055 0.7173 0.0000
vt 0.8945 0.2534 0.0000
vt 0.8754 0.2061 0.0000
vt 0.8905 0.2032 0.0000
vt 0.7248 0.7866 0.0000
vt 0.7219 0.7784 0.0000
vt 0.7355 0.7784 0.0000
vt 0.7218 0.2257 0.0000
vt 0.7540 0.2282 0.0000
vt 0.7505 0.2361 0.0000
vt 0.0702 0.9165 0.0000
vt 0.0714 0.9643 0.0000
vt 0.0647 0.9701 0.0000
vt 0.0010 0.8626 0.0000
vt 0.0076 0.7949 0.0000
vt 0.0143 0.7510 0.0000
vt 0.0654 0.8575 0.0000
vt 0.3423 0.8603 0.0000
vt 0.3134 0.9479 0.0000
vt 0.2853 0.9598 0.0000
vt 0.2602 0.9416 0.0000
vt 0.2460 0.9072 0.0000
vt 0.9817 0.0310 0.0000
vt 0.9881 0.0010 0.0000
vt 0.9936 0.0112 0.0000
vt 0.9977 0.0571 0.0000
vt 0.4222 0.9146 0.0000
vt 0.4693 0.9556 0.0000
vt 0.4480 0.9859 0.0000
vt 0.4296 0.9841 0.0000
vt 0.3913 0.9578 0.0000
vt 0.8470 0.5179 0.0000
vt 0.9001 0.4498 0.0000
vt 0.9284 0.4611 0.0000
vt 0.9389 0.4811 0.0000
vt 0.8640 0.5942 0.0000
vt 0.9418 0.6626 0.0000
vt 0.9621 0.6549 0.0000
vt 0.9785 0.7059 0.0000
vt 0.9674 0.7170 0.0000
vt 0.9166 0.6984 0.0000
vt 0.4887 0.0010 0.0000
vt 0.5137 0.1601 0.0000
vt 0.5198 0.2144 0.0000
vt 0.4733 0.4284 0.0000
vt 0.4686 0.4261 0.0000
vt 0.3967 0.3362 0.0000
vt 0.3955 0.3299 0.0000
vt 0.3913 0.2836 0.0000
vt 0.1240 0.9633 0.0000
vt 0.1598 0.9521 0.0000
vt 0.2026 0.9815 0.0000
vt 0.1239 0.9855 0.0000
vt 0.3678 0.5766 0.0000
vt 0.2703 0.8594 0.0000
vt 0.2648 0.8491 0.0000
vt 0.2460 0.4942 0.0000
vt 0.2541 0.4501 0.0000
vt 0.3068 0.4060 0.0000
vt 0.3269 0.4205 0.0000
vt 0.3677 0.5704 0.0000
vt 0.6852 0.0416 0.0000
vt 0.7061 0.0932 0.0000
vt 0.7209 0.1431 0.0000
vt 0.7127 0.2209 0.0000
vt 0.7104 0.2276 0.0000
vt 0.6249 0.2644 0.0000
vt 0.5819 0.2104 0.0000
vt 0.5208 0.0855 0.0000
vt 0.5217 0.0754 0.0000
vt 0.5406 0.0104 0.0000
vt 0.6533 0.0010 0.0000
vt 0.7962 0.6549 0.0000
vt 0.8218 0.7817 0.0000
vt 0.7658 0.8460 0.0000
vt 0.7521 0.7999 0.0000
vt 0.7481 0.7491 0.0000
vt 0.0728 0.5463 0.0000
vt 0.0576 0.5493 0.0000
vt 0.0282 0.5119 0.0000
vt 0.0010 0.3309 0.0000
vt 0.0244 0.0106 0.0000
vt 0.0476 0.0010 0.0000
vt 0.0597 0.0012 0.0000
vt 0.0985 0.0398 0.0000
vt 0.1230 0.1635 0.0000
vt 0.1209 0.4523 0.0000
vt 0.6046 0.8878 0.0000
vt 0.5759 0.9714 0.0000
vt 0.5227 0.9487 0.0000
vt 0.5208 0.9377 0.0000
vt 0.5498 0.7173 0.0000
vt 0.3868 0.5706 0.0000
vt 0.3687 0.4122 0.0000
vt 0.3693 0.4060 0.0000
vt 0.3809 0.4405 0.0000
vt 0.3130 0.4024 0.0000
vt 0.2989 0.4051 0.0000
vt 0.2460 0.2404 0.0000
vt 0.2460 0.1863 0.0000
vt 0.2506 0.0564 0.0000
vt 0.3811 0.0010 0.0000
vt 0.3904 0.1985 0.0000
vt 0.4842 0.8503 0.0000
vt 0.4494 0.9137 0.0000
vt 0.3977 0.8058 0.0000
vt 0.3913 0.4634 0.0000
vt 0.4351 0.4294 0.0000
vt 0.4596 0.4386 0.0000
vt 0.6106 0.5879 0.0000
vt 0.5290 0.7164 0.0000
vt 0.5208 0.6762 0.0000
vt 0.5508 0.2653 0.0000
vt 0.5907 0.2670 0.0000
vt 0.2432 0.4872 0.0000
vt 0.2365 0.5556 0.0000
vt 0.2268 0.5557 0.0000
vt 0.7472 0.4097 0.0000
vt 0.6922 0.5553 0.0000
vt 0.6794 0.5484 0.0000
vt 0.6116 0.4723 0.0000
vt 0.6901 0.2653 0.0000
vt 0.1239 0.8087 0.0000
vt 0.1335 0.6110 0.0000
vt 0.1669 0.4872 0.0000
vt 0.1802 0.4893 0.0000
vt 0.2259 0.8288 0.0000
vt 0.2215 0.8730 0.0000
vt 0.2065 0.9410 0.0000
vt 0.1877 0.9512 0.0000
vt 0.2012 0.0010 0.0000
vt 0.2450 0.3533 0.0000
vt 0.2390 0.3833 0.0000
vt 0.1811 0.4863 0.0000
vt 0.1526 0.4757 0.0000
vt 0.1239 0.3501 0.0000
vt 0.1620 0.0634 0.0000
vt 0.3885 0.9244 0.0000
vt 0.3690 0.9907 0.0000
vt 0.3433 0.8603 0.0000
vt 0.3808 0.8779 0.0000
vt 0.8610 0.1684 0.0000
vt 0.7283 0.2248 0.0000
vt 0.7218 0.1897 0.0000
vt 0.7399 0.0382 0.0000
vt 0.8118 0.0010 0.0000
vt 0.8305 0.0012 0.0000
vt 0.8745 0.0427 0.0000

o LargeCrystal
g LargeCrystal
s off
f 1/1/1 2/2/2 3/3/3 4/4/4 5/5/5 6/6/6 
f 7/7/7 8/8/8 9/9/9 
f 10/10/10 11/11/11 12/12/12 13/13/13 14/14/14 15/15/15 
f 13/16/13 16/17/16 14/18/14 
f 12/19/12 11/20/11 17/21/17 18/22/18 1/23/1 6/24/6 19/25/19 
f 1/26/1 18/27/18 20/28/20 21/29/21 22/30/22 23/31/23 2/32/2 
f 6/33/6 5/34/5 19/35/19 
f 24/36/24 25/37/25 26/38/26 27/39/27 
f 28/40/28 29/41/29 30/42/30 31/43/31 32/44/32 
f 28/45/28 32/46/32 33/47/33 23/48/23 22/49/22 34/50/34 
f 22/51/22 21/52/21 34/53/34 
f 20/54/20 35/55/35 36/56/36 28/57/28 34/58/34 21/59/21 
f 7/60/7 9/61/9 37/62/37 38/63/38 25/64/25 24/65/24 
f 39/66/39 40/67/40 41/68/41 42/69/42 43/70/43 44/71/44 45/72/45 
f 46/73/46 47/74/47 48/75/48 49/76/49 50/77/50 41/78/41 40/79/40 
f 15/80/15 14/81/14 16/82/16 51/83/51 8/84/8 
f 16/85/16 13/86/13 12/87/12 19/88/19 52/89/52 53/90/53 54/91/54 51/92/51 
f 55/93/55 23/94/23 33/95/33 
f 56/96/56 57/97/57 58/98/58 
f 41/99/41 50/100/50 42/101/42 
f 20/102/20 18/103/18 17/104/17 
f 9/105/9 8/106/8 51/107/51 54/108/54 59/109/59 60/110/60 37/111/37 
f 35/112/35 20/113/20 17/114/17 11/115/11 10/116/10 
f 30/117/30 61/118/61 62/119/62 31/120/31 
f 40/121/40 39/122/39 63/123/63 64/124/64 46/125/46 
f 65/126/65 66/127/66 29/128/29 28/129/28 36/130/36 
f 39/131/39 45/132/45 67/133/67 68/134/68 63/135/63 
f 69/136/69 70/137/70 71/138/71 55/139/55 33/140/33 32/141/32 31/142/31 62/143/62 
f 47/144/47 46/145/46 64/146/64 72/147/72 
f 69/148/69 62/149/62 61/150/61 73/151/73 48/152/48 47/153/47 72/154/72 74/155/74 
f 57/156/57 56/157/56 65/158/65 36/159/36 35/160/35 10/161/10 15/162/15 8/163/8 7/164/7 24/165/24 27/166/27 
f 75/167/75 66/168/66 65/169/65 56/170/56 58/171/58 
f 58/172/58 57/173/57 27/174/27 26/175/26 43/176/43 42/177/42 50/178/50 49/179/49 76/180/76 75/181/75 
f 3/182/3 2/183/2 23/184/23 55/185/55 71/186/71 
f 70/187/70 69/188/69 74/189/74 77/190/77 
f 4/191/4 3/192/3 71/193/71 70/194/70 77/195/77 78/196/78 79/197/79 
f 38/198/38 37/199/37 60/200/60 67/201/67 45/202/45 44/203/44 
f 26/204/26 25/205/25 38/206/38 44/207/44 43/208/43 
f 59/209/59 54/210/54 53/211/53 
f 52/212/52 19/213/19 5/214/5 4/215/4 79/216/79 
f 79/217/79 78/218/78 68/219/68 67/220/67 60/221/60 59/222/59 53/223/53 52/224/52 
f 73/225/73 61/226/61 30/227/30 29/228/29 66/229/66 75/230/75 76/231/76 
f 73/232/73 76/233/76 49/234/49 48/235/48 
f 78/236/78 77/237/77 74/238/74 72/239/72 64/240/64 63/241/63 68/242/68 
